<?xml version="1.0" standalone="no"?>
<!DOCTYPE svg PUBLIC "-//W3C//DTD SVG 20010904//EN"
 "http://www.w3.org/TR/2001/REC-SVG-20010904/DTD/svg10.dtd">
<svg version="1.0" xmlns="http://www.w3.org/2000/svg"
 width="260.000000pt" height="260.000000pt" viewBox="0 0 260.000000 260.000000"
 preserveAspectRatio="xMidYMid meet">
<metadata>
Created by potrace 1.14, written by Peter Selinger 2001-2017
</metadata>
<g transform="translate(0.000000,260.000000) scale(0.100000,-0.100000)"
fill="#000000" stroke="none">
<path d="M0 1300 l0 -1300 1300 0 1300 0 0 1300 0 1300 -1300 0 -1300 0 0
-1300z m1347 971 c26 -12 51 -34 67 -59 14 -22 30 -43 37 -47 15 -10 59 -105
59 -131 0 -11 13 -45 29 -75 17 -30 44 -92 61 -138 17 -46 73 -168 124 -270
52 -102 156 -310 231 -461 76 -151 148 -288 160 -305 37 -50 72 -126 85 -188
6 -33 18 -75 27 -94 21 -52 9 -106 -35 -152 -48 -51 -102 -61 -165 -33 -56 25
-90 80 -113 181 -10 45 -29 90 -49 120 -18 26 -47 76 -65 111 l-32 63 -18 -30
c-37 -62 -78 -76 -239 -84 -351 -18 -422 -12 -560 46 -35 15 -84 28 -108 29
l-45 1 -43 -97 c-115 -258 -214 -368 -332 -368 -65 0 -109 28 -134 86 -32 72
-20 116 51 184 69 67 102 123 175 305 31 77 113 254 181 392 68 139 136 285
150 325 14 40 46 110 70 154 24 45 51 110 60 145 25 102 73 241 97 283 39 70
128 125 202 125 17 0 49 -8 72 -18z"/>
<path d="M1255 1763 c-9 -32 -38 -98 -64 -148 -27 -49 -58 -120 -70 -157 -12
-36 -60 -141 -107 -231 -46 -91 -84 -170 -84 -175 0 -5 24 -14 53 -21 28 -6
76 -23 105 -36 45 -21 69 -25 145 -25 93 0 419 18 424 24 5 5 -99 224 -202
426 -51 102 -112 233 -135 293 -23 59 -43 107 -45 107 -2 0 -11 -26 -20 -57z"/>
</g>
</svg>
