<svg width="86" height="47" viewBox="0 0 86 47" fill="none" xmlns="http://www.w3.org/2000/svg">
<path d="M19.3672 1.12891C21.6862 1.12891 25.2917 1.89062 30.1836 3.41406C29.8789 5.34375 29.6419 6.83333 29.4727 7.88281C29.3034 8.93229 29.2018 9.54167 29.168 9.71094C29.0664 10.2188 28.6602 10.4727 27.9492 10.4727C27.6784 10.4727 27.4922 10.4219 27.3906 10.3203C27.3906 9.8125 27.3737 9.35547 27.3398 8.94922C27.306 8.54297 27.1367 7.95052 26.832 7.17188C26.5273 6.39323 26.1126 5.75 25.5879 5.24219C25.0632 4.73438 24.2422 4.27734 23.125 3.87109C22.0078 3.46484 20.6706 3.26172 19.1133 3.26172C17.3698 3.26172 15.6517 3.76107 13.959 4.75977C12.2663 5.75846 10.7344 7.12109 9.36328 8.84766C7.99219 10.5742 6.89193 12.5547 6.0625 14.7891C5.25 17.0234 4.84375 19.3763 4.84375 21.8477C4.84375 24.0143 5.24154 25.9525 6.03711 27.6621C6.83268 29.3548 7.98372 30.6921 9.49023 31.6738C10.9967 32.6387 12.8164 33.1211 14.9492 33.1211C17.4714 33.1211 19.6042 32.5625 21.3477 31.4453C22.194 30.9375 22.9303 30.3281 23.5566 29.6172C23.946 29.1771 24.3438 28.6693 24.75 28.0938C25.1732 27.5182 25.3932 27.2305 25.4102 27.2305C25.5117 27.2305 25.7148 27.4082 26.0195 27.7637C26.3242 28.1191 26.4596 28.3646 26.4258 28.5C24.9193 31.3945 24.0729 32.9349 23.8867 33.1211C23.5482 33.4935 22.8288 33.849 21.7285 34.1875C20.6283 34.526 19.3418 34.7969 17.8691 35C16.3965 35.2031 14.9323 35.3047 13.4766 35.3047C10.8021 35.3047 8.46615 34.6699 6.46875 33.4004C4.48828 32.1139 2.94792 30.4212 1.84766 28.3223C0.764323 26.2064 0.222656 23.9128 0.222656 21.4414C0.222656 19.207 0.722005 16.888 1.7207 14.4844C2.7194 12.0807 4.04818 9.88867 5.70703 7.9082C7.36589 5.92773 9.4056 4.30273 11.8262 3.0332C14.2467 1.76367 16.7604 1.12891 19.3672 1.12891ZM31.3516 29.9727L36.125 5.34375C36.2266 4.83594 36.2773 4.36198 36.2773 3.92188C36.2773 3.27865 35.2448 2.95703 33.1797 2.95703C33.0781 2.95703 33.0273 2.85547 33.0273 2.65234C33.0273 2.24609 33.1628 1.90755 33.4336 1.63672C35.7018 1.43359 37.8685 0.959635 39.9336 0.214844C40.1367 0.316406 40.2383 0.638021 40.2383 1.17969C40.2383 1.55208 40.0182 2.82161 39.5781 4.98828L34.7539 29.6172C34.6523 30.0234 34.6016 30.4466 34.6016 30.8867C34.6016 31.7331 34.7708 32.1562 35.1094 32.1562C35.3125 32.1562 35.5579 32.0632 35.8457 31.877C36.1335 31.6908 36.4297 31.4622 36.7344 31.1914C37.0391 30.9206 37.3861 30.5736 37.7754 30.1504C38.1647 29.7103 38.3932 29.4479 38.4609 29.3633C38.5625 29.3633 38.6979 29.5241 38.8672 29.8457C39.0365 30.1673 39.1211 30.3958 39.1211 30.5312C38.8333 31.0221 38.3086 31.6484 37.5469 32.4102C36.8021 33.1719 35.9896 33.849 35.1094 34.4414C34.2292 35.0169 33.4336 35.3047 32.7227 35.3047C32.2148 35.3047 31.8001 35.0592 31.4785 34.5684C31.1569 34.0775 30.9961 33.4427 30.9961 32.6641C30.9961 32.1393 31.1146 31.2422 31.3516 29.9727ZM57.0469 12.9102C58.2995 12.9102 59.5352 13.1302 60.7539 13.5703L57.6562 29.6172C57.5547 30.0234 57.5039 30.4466 57.5039 30.8867C57.5039 31.7331 57.6732 32.1562 58.0117 32.1562C58.4349 32.1562 58.9427 31.86 59.5352 31.2676C60.1276 30.6582 60.6354 30.1419 61.0586 29.7188L61.3633 29.3633C61.431 29.3633 61.5579 29.5241 61.7441 29.8457C61.9303 30.1673 62.0234 30.3958 62.0234 30.5312C61.7357 31.0221 61.2109 31.6484 60.4492 32.4102C59.7044 33.1719 58.8919 33.849 58.0117 34.4414C57.1315 35.0169 56.3359 35.3047 55.625 35.3047C55.0833 35.3047 54.6602 35.0592 54.3555 34.5684C54.0508 34.0775 53.8984 33.4427 53.8984 32.6641C53.8984 32.1393 54.0169 31.2422 54.2539 29.9727L54.4316 29.084C54.4824 28.847 54.5078 28.7031 54.5078 28.6523C54.237 29.1602 53.8477 29.7865 53.3398 30.5312C52.832 31.2591 52.248 31.987 51.5879 32.7148C50.9277 33.4427 50.2337 34.0521 49.5059 34.543C48.778 35.0169 48.0586 35.2539 47.3477 35.2539C45.8581 35.2539 44.6816 34.5853 43.8184 33.248C42.9551 31.9108 42.5234 30.2943 42.5234 28.3984C42.5234 25.9779 43.2428 23.5658 44.6816 21.1621C45.6465 19.5371 46.7975 18.1068 48.1348 16.8711C49.4889 15.6354 50.9362 14.6706 52.4766 13.9766C54.0169 13.2656 55.5404 12.9102 57.0469 12.9102ZM54.9141 15.2461C53.9154 15.2461 52.9082 15.6016 51.8926 16.3125C50.877 17.0065 49.946 17.946 49.0996 19.1309C48.2533 20.2988 47.5677 21.6022 47.043 23.041C46.5352 24.4629 46.2812 25.8932 46.2812 27.332C46.2812 30.6497 47.1445 32.3086 48.8711 32.3086C49.4805 32.3086 50.1406 31.9701 50.8516 31.293C51.5625 30.6159 52.265 29.7188 52.959 28.6016C53.653 27.4844 54.2624 26.2741 54.7871 24.9707C55.3288 23.6504 55.7266 22.3555 55.9805 21.0859L56.9961 15.9062C56.5898 15.4661 55.8958 15.2461 54.9141 15.2461ZM71.4688 12.9102C72.4844 12.9102 73.3223 13.7734 73.9824 15.5C74.6595 17.2604 75.1081 19.5202 75.3281 22.2793C75.4974 24.1413 75.6159 25.7155 75.6836 27.002C75.7682 28.2884 75.819 29.4395 75.8359 30.4551C75.8698 31.4707 75.8867 32.5117 75.8867 33.5781C76.7669 32.4948 77.6641 31.1914 78.5781 29.668C79.4922 28.1445 80.2624 26.5788 80.8887 24.9707C81.515 23.3626 81.8281 21.8815 81.8281 20.5273C81.8281 18.5469 81.4049 16.7357 80.5586 15.0938C80.9987 13.638 81.8451 12.9102 83.0977 12.9102C84.5872 12.9102 85.332 14.2474 85.332 16.9219C85.332 20.6628 83.8763 24.9368 80.9648 29.7441C79.5091 32.1478 77.9264 34.3822 76.2168 36.4473C74.5241 38.5293 72.8145 40.349 71.0879 41.9062C69.3613 43.4635 67.7279 44.6738 66.1875 45.5371C64.6471 46.4004 63.3099 46.832 62.1758 46.832C61.2956 46.832 60.5677 46.6289 59.9922 46.2227C59.4167 45.8164 59.1289 45.3255 59.1289 44.75C59.1289 43.6667 59.5182 42.9219 60.2969 42.5156C61.0417 42.9557 62.1758 43.1758 63.6992 43.1758C66.526 43.1758 68.9635 41.6693 71.0117 38.6562C71.7904 37.5221 72.1797 35.2539 72.1797 31.8516C72.1797 30.1927 72.1374 28.5423 72.0527 26.9004C71.9681 25.2585 71.8158 23.5742 71.5957 21.8477C71.4772 20.8659 71.2995 19.9349 71.0625 19.0547C70.8424 18.1745 70.5716 17.4551 70.25 16.8965C69.9284 16.3379 69.556 16.0586 69.1328 16.0586C68.8281 16.0586 68.3711 16.3464 67.7617 16.9219C67.1523 17.4974 66.6784 18.0052 66.3398 18.4453C66.2721 18.4453 66.1452 18.2845 65.959 17.9629C65.7728 17.6413 65.6797 17.4128 65.6797 17.2773C65.7812 17.0234 66.0521 16.6595 66.4922 16.1855C66.9492 15.7116 67.4824 15.2207 68.0918 14.7129C68.7012 14.2051 69.3105 13.7819 69.9199 13.4434C70.5293 13.0879 71.0456 12.9102 71.4688 12.9102Z" fill="black"/>
</svg>
